<svg xmlns="http://www.w3.org/2000/svg" viewBox="0 0 155 88" fill="currentColor" shape-rendering="geometricPrecision">
  <path d="M15 0H35V1H15Z M121 0H143V1H121Z M15 1H35V2H15Z M121 1H143V2H121Z M14 2H36V3H14Z M119 2H144V3H119Z M10 3H37V4H10Z M119 3H144V4H119Z M9 4H38V5H9Z M118 4H145V5H118Z M8 5H39V6H8Z M116 5H146V6H116Z M6 6H40V7H6Z M116 6H146V7H116Z M6 7H40V8H6Z M115 7H147V8H115Z M6 8H42V9H6Z M114 8H147V9H114Z M6 9H43V10H6Z M113 9H147V10H113Z M6 10H43V11H6Z M112 10H147V11H112Z M5 11H44V12H5Z M112 11H147V12H112Z M4 12H44V13H4Z M112 12H147V13H112Z M3 13H44V14H3Z M112 13H147V14H112Z M3 14H45V15H3Z M111 14H150V15H111Z M4 15H46V16H4Z M111 15H151V16H111Z M3 16H46V17H3Z M110 16H151V17H110Z M3 17H46V18H3Z M110 17H152V18H110Z M3 18H46V19H3Z M110 18H152V19H110Z M2 19H47V20H2Z M109 19H153V20H109Z M2 20H47V21H2Z M109 20H153V21H109Z M0 21H47V22H0Z M109 21H153V22H109Z M0 22H48V23H0Z M108 22H153V23H108Z M0 23H48V24H0Z M108 23H153V24H108Z M0 24H48V25H0Z M108 24H155V25H108Z M0 25H48V26H0Z M107 25H155V26H107Z M0 26H48V27H0Z M107 26H155V27H107Z M0 27H49V28H0Z M107 27H155V28H107Z M0 28H49V29H0Z M107 28H155V29H107Z M0 29H49V30H0Z M107 29H155V30H107Z M0 30H49V31H0Z M107 30H155V31H107Z M0 31H49V32H0Z M107 31H155V32H107Z M0 32H49V33H0Z M107 32H155V33H107Z M0 33H50V34H0Z M107 33H155V34H107Z M0 34H50V35H0Z M107 34H155V35H107Z M0 35H50V36H0Z M107 35H155V36H107Z M0 36H50V37H0Z M106 36H155V37H106Z M0 37H50V38H0Z M106 37H155V38H106Z M0 38H50V39H0Z M106 38H155V39H106Z M0 39H50V40H0Z M106 39H155V40H106Z M0 40H50V41H0Z M106 40H155V41H106Z M0 41H50V42H0Z M106 41H155V42H106Z M0 42H50V43H0Z M106 42H155V43H106Z M0 43H50V44H0Z M106 43H155V44H106Z M0 44H50V45H0Z M106 44H155V45H106Z M0 45H50V46H0Z M106 45H155V46H106Z M0 46H50V47H0Z M106 46H155V47H106Z M0 47H50V48H0Z M106 47H155V48H106Z M0 48H50V49H0Z M106 48H155V49H106Z M0 49H50V50H0Z M106 49H155V50H106Z M0 50H50V51H0Z M107 50H155V51H107Z M0 51H50V52H0Z M107 51H155V52H107Z M0 52H50V53H0Z M107 52H155V53H107Z M0 53H50V54H0Z M107 53H155V54H107Z M0 54H49V55H0Z M107 54H155V55H107Z M0 55H49V56H0Z M107 55H155V56H107Z M0 56H49V57H0Z M107 56H155V57H107Z M0 57H49V58H0Z M107 57H155V58H107Z M0 58H49V59H0Z M107 58H155V59H107Z M0 59H48V60H0Z M107 59H153V60H107Z M0 60H48V61H0Z M108 60H153V61H108Z M0 61H48V62H0Z M108 61H153V62H108Z M2 62H48V63H2Z M108 62H153V63H108Z M2 63H47V64H2Z M109 63H153V64H109Z M2 64H47V65H2Z M109 64H152V65H109Z M2 65H47V66H2Z M109 65H152V66H109Z M3 66H47V67H3Z M109 66H152V67H109Z M3 67H47V68H3Z M110 67H151V68H110Z M3 68H47V69H3Z M110 68H151V69H110Z M4 69H46V70H4Z M111 69H151V70H111Z M5 70H46V71H5Z M111 70H150V71H111Z M5 71H45V72H5Z M112 71H150V72H112Z M5 72H44V73H5Z M112 72H149V73H112Z M6 73H44V74H6Z M113 73H148V74H113Z M6 74H44V75H6Z M113 74H148V75H113Z M7 75H43V76H7Z M114 75H148V76H114Z M7 76H42V77H7Z M115 76H147V77H115Z M8 77H41V78H8Z M115 77H146V78H115Z M9 78H40V79H9Z M115 78H145V79H115Z M9 79H39V80H9Z M116 79H145V80H116Z M9 80H39V81H9Z M117 80H146V81H117Z M9 81H37V82H9Z M119 81H142V82H119Z M144 81H145V82H144Z M10 82H36V83H10Z M120 82H141V83H120Z M11 83H35V84H11Z M120 83H140V84H120Z M12 84H34V85H12Z M124 84H138V85H124Z M16 85H32V86H16Z M126 85H136V86H126Z M17 86H30V87H17Z M17 87H30V88H17Z"/>
</svg>
