<svg xmlns="http://www.w3.org/2000/svg" viewBox="0 0 174 86" fill="currentColor" shape-rendering="geometricPrecision">
  <path d="M140 0H162V1H140Z M140 1H162V2H140Z M138 2H163V3H138Z M138 3H163V4H138Z M137 4H164V5H137Z M135 5H165V6H135Z M135 6H165V7H135Z M134 7H166V8H134Z M133 8H166V9H133Z M132 9H166V10H132Z M131 10H166V11H131Z M131 11H166V12H131Z M131 12H166V13H131Z M131 13H166V14H131Z M130 14H169V15H130Z M130 15H170V16H130Z M129 16H170V17H129Z M129 17H171V18H129Z M129 18H171V19H129Z M128 19H172V20H128Z M128 20H172V21H128Z M128 21H172V22H128Z M127 22H172V23H127Z M127 23H172V24H127Z M127 24H174V25H127Z M126 25H174V26H126Z M126 26H174V27H126Z M126 27H174V28H126Z M25 28H40V29H25Z M126 28H174V29H126Z M20 29H46V30H20Z M126 29H174V30H126Z M15 30H51V31H15Z M126 30H174V31H126Z M12 31H54V32H12Z M126 31H174V32H126Z M10 32H56V33H10Z M126 32H174V33H126Z M8 33H58V34H8Z M126 33H174V34H126Z M7 34H60V35H7Z M126 34H174V35H126Z M5 35H61V36H5Z M126 35H174V36H126Z M4 36H63V37H4Z M125 36H174V37H125Z M3 37H65V38H3Z M125 37H174V38H125Z M2 38H66V39H2Z M125 38H174V39H125Z M1 39H67V40H1Z M125 39H174V40H125Z M1 40H68V41H1Z M125 40H174V41H125Z M1 41H69V42H1Z M125 41H174V42H125Z M0 42H70V43H0Z M125 42H174V43H125Z M0 43H71V44H0Z M125 43H174V44H125Z M0 44H72V45H0Z M125 44H174V45H125Z M0 45H73V46H0Z M125 45H174V46H125Z M0 46H74V47H0Z M125 46H174V47H125Z M0 47H74V48H0Z M125 47H174V48H125Z M0 48H75V49H0Z M125 48H174V49H125Z M1 49H75V50H1Z M125 49H174V50H125Z M1 50H28V51H1Z M38 50H76V51H38Z M126 50H174V51H126Z M2 51H23V52H2Z M43 51H76V52H43Z M126 51H174V52H126Z M2 52H20V53H2Z M46 52H76V53H46Z M126 52H174V53H126Z M3 53H18V54H3Z M49 53H76V54H49Z M126 53H174V54H126Z M5 54H16V55H5Z M51 54H76V55H51Z M126 54H174V55H126Z M7 55H14V56H7Z M52 55H76V56H52Z M126 55H174V56H126Z M54 56H76V57H54Z M126 56H174V57H126Z M55 57H76V58H55Z M126 57H174V58H126Z M56 58H75V59H56Z M126 58H174V59H126Z M57 59H75V60H57Z M126 59H172V60H126Z M57 60H74V61H57Z M127 60H172V61H127Z M58 61H74V62H58Z M127 61H172V62H127Z M59 62H73V63H59Z M127 62H172V63H127Z M60 63H71V64H60Z M128 63H172V64H128Z M62 64H69V65H62Z M128 64H171V65H128Z M128 65H171V66H128Z M128 66H171V67H128Z M129 67H170V68H129Z M129 68H170V69H129Z M130 69H170V70H130Z M130 70H169V71H130Z M131 71H169V72H131Z M131 72H168V73H131Z M132 73H167V74H132Z M132 74H167V75H132Z M133 75H167V76H133Z M134 76H166V77H134Z M134 77H165V78H134Z M134 78H164V79H134Z M135 79H164V80H135Z M136 80H165V81H136Z M138 81H161V82H138Z M163 81H164V82H163Z M139 82H160V83H139Z M139 83H159V84H139Z M143 84H157V85H143Z M145 85H155V86H145Z"/>
</svg>
