<svg xmlns="http://www.w3.org/2000/svg" viewBox="0 0 233 94" fill="currentColor" shape-rendering="geometricPrecision">
  <path d="M16 0H27V1H16Z M208 0H218V1H208Z M12 1H28V2H12Z M205 1H218V2H205Z M12 2H29V3H12Z M205 2H221V3H205Z M11 3H30V4H11Z M204 3H223V4H204Z M8 4H30V5H8Z M204 4H224V5H204Z M7 5H31V6H7Z M202 5H225V6H202Z M6 6H32V7H6Z M202 6H225V7H202Z M6 7H32V8H6Z M202 7H227V8H202Z M4 8H32V9H4Z M202 8H228V9H202Z M3 9H32V10H3Z M202 9H229V10H202Z M2 10H32V11H2Z M202 10H230V11H202Z M2 11H31V12H2Z M202 11H231V12H202Z M2 12H30V13H2Z M203 12H233V13H203Z M0 13H30V14H0Z M206 13H233V14H206Z M0 14H27V15H0Z M206 14H233V15H206Z M0 15H27V16H0Z M206 15H233V16H206Z M0 16H28V17H0Z M206 16H233V17H206Z M0 17H28V18H0Z M205 17H233V18H205Z M0 18H29V19H0Z M205 18H233V19H205Z M0 19H29V20H0Z M204 19H233V20H204Z M0 20H30V21H0Z M204 20H233V21H204Z M2 21H30V22H2Z M204 21H233V22H204Z M3 22H13V23H3Z M14 22H30V23H14Z M202 22H220V23H202Z M221 22H231V23H221Z M4 23H10V24H4Z M15 23H31V24H15Z M202 23H220V24H202Z M223 23H229V24H223Z M5 24H6V25H5Z M15 24H32V25H15Z M202 24H219V25H202Z M15 25H32V26H15Z M201 25H219V26H201Z M16 26H33V27H16Z M201 26H219V27H201Z M16 27H33V28H16Z M201 27H218V28H201Z M16 28H34V29H16Z M200 28H217V29H200Z M16 29H34V30H16Z M200 29H217V30H200Z M17 30H36V31H17Z M198 30H217V31H198Z M18 31H36V32H18Z M198 31H216V32H198Z M18 32H36V33H18Z M198 32H216V33H198Z M19 33H37V34H19Z M197 33H215V34H197Z M19 34H37V35H19Z M196 34H215V35H196Z M19 35H38V36H19Z M196 35H215V36H196Z M20 36H38V37H20Z M195 36H215V37H195Z M20 37H40V38H20Z M194 37H213V38H194Z M21 38H40V39H21Z M193 38H213V39H193Z M21 39H41V40H21Z M193 39H212V40H193Z M22 40H41V41H22Z M192 40H212V41H192Z M23 41H42V42H23Z M192 41H211V42H192Z M23 42H43V43H23Z M191 42H211V43H191Z M23 43H43V44H23Z M189 43H210V44H189Z M24 44H44V45H24Z M189 44H209V45H189Z M25 45H45V46H25Z M187 45H208V46H187Z M25 46H46V47H25Z M186 46H208V47H186Z M26 47H47V48H26Z M185 47H207V48H185Z M27 48H48V49H27Z M184 48H207V49H184Z M28 49H49V50H28Z M183 49H205V50H183Z M28 50H50V51H28Z M184 50H204V51H184Z M28 51H51V52H28Z M183 51H204V52H183Z M30 52H52V53H30Z M181 52H205V53H181Z M31 53H53V54H31Z M180 53H203V54H180Z M32 54H54V55H32Z M178 54H202V55H178Z M33 55H55V56H33Z M178 55H201V56H178Z M34 56H56V57H34Z M177 56H200V57H177Z M35 57H57V58H35Z M176 57H199V58H176Z M36 58H59V59H36Z M173 58H174V59H173Z M175 58H198V59H175Z M37 59H61V60H37Z M173 59H198V60H173Z M37 60H62V61H37Z M171 60H198V61H171Z M37 61H64V62H37Z M170 61H197V62H170Z M38 62H66V63H38Z M168 62H196V63H168Z M39 63H67V64H39Z M167 63H195V64H167Z M42 64H69V65H42Z M165 64H193V65H165Z M43 65H70V66H43Z M164 65H193V66H164Z M44 66H71V67H44Z M161 66H191V67H161Z M45 67H74V68H45Z M160 67H189V68H160Z M46 68H77V69H46Z M158 68H188V69H158Z M47 69H80V70H47Z M155 69H187V70H155Z M49 70H81V71H49Z M153 70H186V71H153Z M50 71H84V72H50Z M151 71H185V72H151Z M51 72H88V73H51Z M148 72H183V73H148Z M52 73H92V74H52Z M144 73H182V74H144Z M54 74H97V75H54Z M139 74H181V75H139Z M55 75H97V76H55Z M99 75H100V76H99Z M136 75H178V76H136Z M56 76H105V77H56Z M107 76H110V77H107Z M131 76H177V77H131Z M59 77H175V78H59Z M61 78H174V79H61Z M62 79H172V80H62Z M63 80H170V81H63Z M65 81H168V82H65Z M169 81H170V82H169Z M68 82H167V83H68Z M71 83H164V84H71Z M72 84H162V85H72Z M75 85H161V86H75Z M77 86H157V87H77Z M80 87H153V88H80Z M83 88H149V89H83Z M85 89H147V90H85Z M90 90H143V91H90Z M95 91H140V92H95Z M98 92H133V93H98Z M135 92H136V93H135Z M107 93H126V94H107Z"/>
</svg>
